<svg width="90" height="96" viewBox="0 0 90 96" fill="none" xmlns="http://www.w3.org/2000/svg">
<g filter="url(#filter0_f_27_50)">
<path d="M72.7777 52.6655C65.4712 55.0025 59.5277 49.3545 54.8337 39.6528C52.5021 46.4723 52.3543 50.3691 53.4906 57.4087C55.7739 62.4971 64.8802 65.2371 69.9303 64.458C68.238 63.7865 66.0621 61.8793 65.3368 60.471C67.9316 61.7302 69.4211 62.327 72.7777 61.1003C70.2258 60.471 69.0707 59.8646 67.8619 58.4409C69.6617 58.8707 71.9718 58.4409 73.4492 57.4087C71.4346 57.1784 69.2319 56.6143 68.1036 55.3249C70.172 55.0025 71.73 54.2235 72.7777 52.6655Z" fill="#F67FCA"/>
<path fill-rule="evenodd" clip-rule="evenodd" d="M43.4074 70.3304C42.9925 70.3508 42.6726 70.7036 42.693 71.1185L42.8248 73.8076L42.4531 78.1086C42.4173 78.5224 42.7238 78.8869 43.1377 78.9227C43.5515 78.9584 43.916 78.6519 43.9518 78.2381L44.1277 76.2022L46.1836 79.6343C46.3971 79.9907 46.859 80.1065 47.2153 79.893C47.5717 79.6796 47.6875 79.2177 47.4741 78.8613L45.6558 75.8258L48.1849 77.2202C48.5486 77.4208 49.0061 77.2885 49.2067 76.9247C49.4072 76.561 49.2749 76.1035 48.9112 75.9029L44.3092 73.3656L44.1954 71.0449C44.1751 70.63 43.8223 70.3101 43.4074 70.3304Z" fill="#F0AF75"/>
<path fill-rule="evenodd" clip-rule="evenodd" d="M30.5018 69.7692C30.0885 69.8109 29.7872 70.1797 29.8289 70.593L30.1636 73.9148L28.9138 78.289C28.7997 78.6885 29.031 79.1048 29.4304 79.2189C29.8298 79.333 30.2461 79.1017 30.3602 78.7023L31.1771 75.8431L33.158 79.1013C33.3738 79.4562 33.8364 79.569 34.1914 79.3533C34.5463 79.1375 34.6592 78.6748 34.4434 78.3198L32.983 75.9178L34.4974 76.7165C34.8649 76.9103 35.3198 76.7695 35.5136 76.4021C35.7074 76.0346 35.5666 75.5797 35.1992 75.3859L31.6343 73.5058L31.3256 70.4422C31.2839 70.0289 30.9151 69.7276 30.5018 69.7692Z" fill="#F0AF75"/>
<path d="M16.0001 67.2557C19.9757 65.4661 21.1835 63.5496 20.9706 58.0147C24.6326 60.5662 25.7752 62.4697 24.1054 67.7914C21.2349 68.6254 19.5155 68.7334 16.0001 67.2557Z" fill="#FFAAE0"/>
<path d="M30.0419 16C38.9914 19.9457 42.1674 19.568 50.4819 16.4169C56.6533 38.3746 57.259 56.4035 48.4685 67.936C45.6521 71.6309 42.1212 71.885 39.7231 69.5417C36.7037 66.5913 35.4346 67.2802 33.144 69.809C30.7715 72.4282 26.7455 70.9589 24.5009 68.4386C15.6856 58.5406 18.7997 16.1302 18.7997 16.1302C20.9543 19.123 24.6225 19.7987 32.7304 19.2511L30.0419 16Z" fill="#FFCEED"/>
<path d="M33.1444 69.8089C30.7719 72.4281 26.7459 70.9588 24.5012 68.4385C24.451 68.3821 24.4012 68.3246 24.3517 68.2661C17.0895 45.1763 55.238 45.0567 49.2887 66.8159C49.0285 67.1867 48.7554 67.5599 48.4688 67.9359C45.6524 71.6308 42.1216 71.8849 39.7235 69.5416C36.7041 66.5912 35.4349 67.2801 33.1444 69.8089Z" fill="#FFAAE0"/>
<rect width="5.15753" height="1.93408" rx="0.967041" transform="matrix(-1 0 0 1 49.0586 45.1172)" fill="#E598C9" fill-opacity="0.5"/>
<rect width="5.15753" height="1.93408" rx="0.967041" transform="matrix(-1 0 0 1 30.2134 45.1172)" fill="#E598C9" fill-opacity="0.5"/>
<path d="M41.1072 53.6749C32.6456 53.2182 26.4827 47.1589 18.2206 34.4952C13.278 53.2182 25.742 65.5211 36.9167 63.0229C35.6959 62.2518 35.1552 61.7841 34.3916 60.9008C35.8959 61.6107 37.5076 61.4764 39.0119 61.2615C37.5614 60.9008 36.3526 59.9452 35.3855 58.7901C37.8569 59.3274 39.2806 59.1125 40.8117 58.1609C38.9391 57.693 37.4808 57.0441 36.1645 55.9427C38.1523 55.4324 39.7103 54.8951 41.1072 53.6749Z" fill="#F67FCA"/>
<path d="M41.3007 44.6309C39.1096 43.5553 38.2258 42.5074 36.9803 40.2124C35.8202 42.2118 34.9281 43.1581 32.9941 44.5984C35.9331 47.6881 37.7478 47.7198 41.3007 44.6309Z" fill="#F0AF75"/>
<path d="M51.5025 25.792C49.9171 26.0095 47.0702 24.9861 47.0702 24.9861C48.387 25.8725 54.9951 29.096 54.9951 26.571C54.9951 24.9861 53.0879 25.5744 51.5025 25.792Z" fill="#404040"/>
<path d="M50.7508 27.6723C49.0318 26.759 47.0439 24.9055 47.0439 24.9055C47.0439 26.1948 54.1354 32.9373 54.6995 29.8212C54.9961 28.1826 52.4699 28.5856 50.7508 27.6723Z" fill="#404040"/>
<ellipse cx="7.60199" cy="9.48237" rx="7.60199" ry="9.48237" transform="matrix(-1 0 0 1 52.282 24.395)" fill="white"/>
<path d="M22.6538 25.792C24.2392 26.0095 27.086 24.9861 27.086 24.9861C25.7692 25.8725 19.1611 29.096 19.1611 26.571C19.1611 24.9861 21.0683 25.5744 22.6538 25.792Z" fill="#404040"/>
<path d="M23.4049 27.6723C25.124 26.759 27.1119 24.9055 27.1119 24.9055C27.1119 26.1948 20.0204 32.9373 19.4563 29.8212C19.1597 28.1826 21.6859 28.5856 23.4049 27.6723Z" fill="#404040"/>
<ellipse cx="29.4763" cy="33.8774" rx="7.60199" ry="9.48237" fill="white"/>
<rect width="1.28938" height="9.67041" rx="0.644692" transform="matrix(-1 0 0 1 41.8596 29.5908)" fill="#404040"/>
<rect x="32.4038" y="29.5908" width="1.28938" height="9.67041" rx="0.644692" fill="#404040"/>
</g>
<path d="M72.7777 52.6655C65.4712 55.0025 59.5277 49.3545 54.8337 39.6528C52.5021 46.4723 52.3543 50.3691 53.4906 57.4087C55.7739 62.4971 64.8802 65.2371 69.9303 64.458C68.238 63.7865 66.0621 61.8793 65.3368 60.471C67.9316 61.7302 69.4211 62.327 72.7777 61.1003C70.2258 60.471 69.0707 59.8646 67.8619 58.4409C69.6617 58.8707 71.9718 58.4409 73.4492 57.4087C71.4346 57.1784 69.2319 56.6143 68.1036 55.3249C70.172 55.0025 71.73 54.2235 72.7777 52.6655Z" fill="#F67FCA"/>
<path fill-rule="evenodd" clip-rule="evenodd" d="M43.4074 70.3304C42.9925 70.3508 42.6726 70.7036 42.693 71.1185L42.8248 73.8076L42.4531 78.1086C42.4173 78.5224 42.7238 78.8869 43.1377 78.9227C43.5515 78.9584 43.916 78.6519 43.9518 78.2381L44.1277 76.2022L46.1836 79.6343C46.3971 79.9907 46.859 80.1065 47.2153 79.893C47.5717 79.6796 47.6875 79.2177 47.4741 78.8613L45.6558 75.8258L48.1849 77.2202C48.5486 77.4208 49.0061 77.2885 49.2067 76.9247C49.4072 76.561 49.2749 76.1035 48.9112 75.9029L44.3092 73.3656L44.1954 71.0449C44.1751 70.63 43.8223 70.3101 43.4074 70.3304Z" fill="#F0AF75"/>
<path fill-rule="evenodd" clip-rule="evenodd" d="M30.5018 69.7692C30.0885 69.8109 29.7872 70.1797 29.8289 70.593L30.1636 73.9148L28.9138 78.289C28.7997 78.6885 29.031 79.1048 29.4304 79.2189C29.8298 79.333 30.2461 79.1017 30.3602 78.7023L31.1771 75.8431L33.158 79.1013C33.3738 79.4562 33.8364 79.569 34.1914 79.3533C34.5463 79.1375 34.6592 78.6748 34.4434 78.3198L32.983 75.9178L34.4974 76.7165C34.8649 76.9103 35.3198 76.7695 35.5136 76.4021C35.7074 76.0346 35.5666 75.5797 35.1992 75.3859L31.6343 73.5058L31.3256 70.4422C31.2839 70.0289 30.9151 69.7276 30.5018 69.7692Z" fill="#F0AF75"/>
<path d="M16.0001 67.2557C19.9757 65.4661 21.1835 63.5496 20.9706 58.0147C24.6326 60.5662 25.7752 62.4697 24.1054 67.7914C21.2349 68.6254 19.5155 68.7334 16.0001 67.2557Z" fill="#FFAAE0"/>
<path d="M30.0419 16C38.9914 19.9457 42.1674 19.568 50.4819 16.4169C56.6533 38.3746 57.259 56.4035 48.4685 67.936C45.6521 71.6309 42.1212 71.885 39.7231 69.5417C36.7037 66.5913 35.4346 67.2802 33.144 69.809C30.7715 72.4282 26.7455 70.9589 24.5009 68.4386C15.6856 58.5406 18.7997 16.1302 18.7997 16.1302C20.9543 19.123 24.6225 19.7987 32.7304 19.2511L30.0419 16Z" fill="#FFCEED"/>
<path d="M33.1444 69.8089C30.7719 72.4281 26.7459 70.9588 24.5012 68.4385C24.451 68.3821 24.4012 68.3246 24.3517 68.2661C17.0895 45.1763 55.238 45.0567 49.2887 66.8159C49.0285 67.1867 48.7554 67.5599 48.4688 67.9359C45.6524 71.6308 42.1216 71.8849 39.7235 69.5416C36.7041 66.5912 35.4349 67.2801 33.1444 69.8089Z" fill="#FFAAE0"/>
<rect width="5.15753" height="1.93408" rx="0.967041" transform="matrix(-1 0 0 1 49.0586 45.1172)" fill="#E598C9" fill-opacity="0.5"/>
<rect width="5.15753" height="1.93408" rx="0.967041" transform="matrix(-1 0 0 1 30.2134 45.1172)" fill="#E598C9" fill-opacity="0.5"/>
<path d="M41.1072 53.6749C32.6456 53.2182 26.4827 47.1589 18.2206 34.4952C13.278 53.2182 25.742 65.5211 36.9167 63.0229C35.6959 62.2518 35.1552 61.7841 34.3916 60.9008C35.8959 61.6107 37.5076 61.4764 39.0119 61.2615C37.5614 60.9008 36.3526 59.9452 35.3855 58.7901C37.8569 59.3274 39.2806 59.1125 40.8117 58.1609C38.9391 57.693 37.4808 57.0441 36.1645 55.9427C38.1523 55.4324 39.7103 54.8951 41.1072 53.6749Z" fill="#F67FCA"/>
<path d="M41.3007 44.6309C39.1096 43.5553 38.2258 42.5074 36.9803 40.2124C35.8202 42.2118 34.9281 43.1581 32.9941 44.5984C35.9331 47.6881 37.7478 47.7198 41.3007 44.6309Z" fill="#F0AF75"/>
<path d="M51.5025 25.792C49.9171 26.0095 47.0702 24.9861 47.0702 24.9861C48.387 25.8725 54.9951 29.096 54.9951 26.571C54.9951 24.9861 53.0879 25.5744 51.5025 25.792Z" fill="#404040"/>
<path d="M50.7508 27.6723C49.0318 26.759 47.0439 24.9055 47.0439 24.9055C47.0439 26.1948 54.1354 32.9373 54.6995 29.8212C54.9961 28.1826 52.4699 28.5856 50.7508 27.6723Z" fill="#404040"/>
<ellipse cx="7.60199" cy="9.48237" rx="7.60199" ry="9.48237" transform="matrix(-1 0 0 1 52.282 24.395)" fill="white"/>
<path d="M22.6538 25.792C24.2392 26.0095 27.086 24.9861 27.086 24.9861C25.7692 25.8725 19.1611 29.096 19.1611 26.571C19.1611 24.9861 21.0683 25.5744 22.6538 25.792Z" fill="#404040"/>
<path d="M23.4049 27.6723C25.124 26.759 27.1119 24.9055 27.1119 24.9055C27.1119 26.1948 20.0204 32.9373 19.4563 29.8212C19.1597 28.1826 21.6859 28.5856 23.4049 27.6723Z" fill="#404040"/>
<ellipse cx="29.4763" cy="33.8774" rx="7.60199" ry="9.48237" fill="white"/>
<rect width="1.28938" height="9.67041" rx="0.644692" transform="matrix(-1 0 0 1 41.8596 29.5908)" fill="#404040"/>
<rect x="32.4038" y="29.5908" width="1.28938" height="9.67041" rx="0.644692" fill="#404040"/>
<defs>
<filter id="filter0_f_27_50" x="0" y="0" width="89.4492" height="96.0001" filterUnits="userSpaceOnUse" color-interpolation-filters="sRGB">
<feFlood flood-opacity="0" result="BackgroundImageFix"/>
<feBlend mode="normal" in="SourceGraphic" in2="BackgroundImageFix" result="shape"/>
<feGaussianBlur stdDeviation="8" result="effect1_foregroundBlur_27_50"/>
</filter>
</defs>
</svg>
