<svg width="72" height="108" viewBox="0 0 72 108" fill="none" xmlns="http://www.w3.org/2000/svg">
<g filter="url(#filter0_f_82_119)">
<path fill-rule="evenodd" clip-rule="evenodd" d="M42.0006 82.8334C41.607 82.8527 41.3035 83.1874 41.3228 83.581L41.4479 86.1321L41.0953 90.2123C41.0614 90.6049 41.3521 90.9507 41.7447 90.9846C42.1374 91.0185 42.4831 90.7278 42.5171 90.3352L42.684 88.4038L44.6343 91.6597C44.8368 91.9978 45.2751 92.1077 45.6131 91.9052C45.9512 91.7027 46.0611 91.2645 45.8586 90.9264L44.1336 88.0467L46.5329 89.3696C46.878 89.5598 47.312 89.4343 47.5023 89.0892C47.6925 88.7441 47.567 88.3101 47.2219 88.1199L42.8561 85.7128L42.7482 83.5111C42.7289 83.1175 42.3942 82.8141 42.0006 82.8334Z" fill="#F0AF75"/>
<path fill-rule="evenodd" clip-rule="evenodd" d="M29.7574 82.301C29.3653 82.3405 29.0795 82.6903 29.119 83.0824L29.4366 86.2337L28.2509 90.3835C28.1427 90.7624 28.3621 91.1573 28.741 91.2656C29.1199 91.3738 29.5148 91.1544 29.6231 90.7755L30.3981 88.0631L32.2772 91.154C32.482 91.4908 32.9209 91.5978 33.2576 91.3931C33.5943 91.1884 33.7014 90.7494 33.4966 90.4127L32.1113 88.1339L33.5479 88.8916C33.8965 89.0755 34.3281 88.9419 34.5119 88.5934C34.6958 88.2448 34.5622 87.8132 34.2137 87.6294L30.8318 85.8457L30.5389 82.9394C30.4994 82.5473 30.1495 82.2614 29.7574 82.301Z" fill="#F0AF75"/>
<path d="M16.0001 79.9165C19.7716 78.2188 20.9174 76.4006 20.7156 71.1499C24.1895 73.5704 25.2736 75.3762 23.6894 80.4247C20.9663 81.2159 19.3351 81.3184 16.0001 79.9165Z" fill="#FFAAE0"/>
<path d="M29.335 31.3196C37.8251 35.0628 40.8381 34.7045 48.726 31.7151C54.5806 52.5458 55.1552 69.6493 46.8158 80.59C44.1439 84.0952 40.7943 84.3362 38.5193 82.1132C35.6549 79.3143 34.4509 79.9678 32.2779 82.3668C30.0271 84.8516 26.2078 83.4577 24.0783 81.0667C15.7155 71.6768 18.6697 31.4431 18.6697 31.4431C20.7138 34.2823 24.1937 34.9233 31.8855 34.4038L29.335 31.3196Z" fill="#FFCEED"/>
<path d="M32.264 82.3388C30.0132 84.8236 26.1939 83.4297 24.0644 81.0387C24.0168 80.9852 23.9695 80.9307 23.9226 80.8752C17.033 58.9705 53.2236 58.857 47.5797 79.4994C47.3329 79.8511 47.0738 80.2052 46.8019 80.5619C44.13 84.0672 40.7804 84.3082 38.5054 82.0852C35.641 79.2863 34.437 79.9398 32.264 82.3388Z" fill="#FFAAE0"/>
<rect width="4.89284" height="1.83481" rx="0.917407" transform="matrix(-1 0 0 1 47.3616 58.9144)" fill="#E598C9" fill-opacity="0.5"/>
<rect width="4.89284" height="1.83481" rx="0.917407" transform="matrix(-1 0 0 1 29.4839 58.9144)" fill="#E598C9" fill-opacity="0.5"/>
<path d="M39.9714 69.4645C31.9441 69.0313 26.0975 63.283 18.2595 51.2693C13.5705 69.0313 25.3949 80.5499 35.996 78.1799C38.5243 75.7663 39.6399 74.2414 39.9714 69.4645Z" fill="#F67FCA"/>
<path d="M31.0151 69.4645C39.0424 69.0313 44.8891 63.283 52.7271 51.2693C57.4161 69.0313 45.5917 80.7028 34.9906 78.3328C36.1487 77.6012 36.6616 77.1576 37.386 76.3196C35.9589 76.993 34.4299 76.8656 33.0029 76.6617C34.379 76.3196 35.5257 75.413 36.4431 74.3172C34.0986 74.8269 32.748 74.623 31.2955 73.7203C33.0719 73.2764 34.4554 72.6608 35.7041 71.616C33.8183 71.1318 32.3403 70.6221 31.0151 69.4645Z" fill="#F67FCA"/>
<path d="M39.9512 58.453C37.8725 57.4326 37.0341 56.4384 35.8525 54.2613C34.752 56.158 33.9057 57.0558 32.071 58.4222C34.8591 61.3533 36.5806 61.3833 39.9512 58.453Z" fill="#F0AF75"/>
<path d="M37.1677 48.8015C38.4834 44.0545 46.8464 43.8842 49.5115 49.3191" stroke="#F67FCA" stroke-linecap="round" stroke-linejoin="round"/>
<path d="M52.4394 49.1333C50.9591 49.4699 48.184 48.7381 48.184 48.7381C49.5018 49.467 56.0134 51.967 55.8046 49.5807C55.6736 48.0829 53.9198 48.7966 52.4394 49.1333Z" fill="#404040"/>
<path d="M51.8848 50.9725C50.1847 50.2514 48.1527 48.6641 48.1527 48.6641C48.2593 49.8827 55.5188 55.6684 55.7942 52.6769C55.9391 51.1038 53.585 51.6935 51.8848 50.9725Z" fill="#404040"/>
<path d="M35.0598 48.8014C33.7442 44.0545 25.3812 43.8842 22.716 49.3191" stroke="#F67FCA" stroke-linecap="round" stroke-linejoin="round"/>
<path d="M20.1216 49.7657C21.6379 49.8401 24.2437 48.6376 24.2437 48.6376C23.0725 49.5842 17.0939 53.177 16.8852 50.7907C16.7542 49.2928 18.6052 49.6912 20.1216 49.7657Z" fill="#404040"/>
<path d="M20.9873 51.4806C22.5364 50.4753 24.2618 48.5593 24.2618 48.5593C24.3684 49.7778 18.2239 56.7362 17.4332 53.838C17.0174 52.3139 19.4382 52.4858 20.9873 51.4806Z" fill="#404040"/>
<path d="M42.6526 26.5067C41.6838 28.2021 37.6526 26.5067 37.6526 26.5067C37.6526 26.5067 34.4517 29.5366 32.1526 29.0067C30.3983 28.6025 28.6526 26.0067 28.6526 26.0067C28.6526 26.0067 24.2298 27.7395 22.6526 26.0067C20.8989 24.0802 21.7366 20.4812 24.1526 19.5067C25.8221 18.8334 28.6526 20.5067 28.6526 20.5067C28.6526 20.5067 30.3091 16.1981 32.6526 16.0067C34.7576 15.8348 37.1526 19.0067 37.1526 19.0067C37.1526 19.0067 40.2916 17.884 42.1526 18.5067C43.8598 19.078 46.191 19.7889 45.6526 21.5067C45.2078 22.9257 42.1526 23.0067 42.1526 23.0067C42.1526 23.0067 43.3376 25.3079 42.6526 26.5067Z" fill="white"/>
<circle cx="29.1526" cy="23.0067" r="1" fill="#F67FCA"/>
<circle cx="33.1526" cy="23.0067" r="1" fill="#F67FCA"/>
<circle cx="37.1526" cy="23.0067" r="1" fill="#F67FCA"/>
</g>
<path fill-rule="evenodd" clip-rule="evenodd" d="M42.0003 82.8334C41.6067 82.8527 41.3033 83.1874 41.3226 83.581L41.4477 86.1321L41.095 90.2123C41.0611 90.6049 41.3519 90.9507 41.7445 90.9846C42.1371 91.0185 42.4829 90.7278 42.5168 90.3352L42.6837 88.4038L44.6341 91.6597C44.8366 91.9978 45.2748 92.1077 45.6129 91.9052C45.9509 91.7027 46.0608 91.2645 45.8583 90.9264L44.1334 88.0467L46.5326 89.3696C46.8777 89.5598 47.3117 89.4343 47.502 89.0892C47.6923 88.7441 47.5668 88.3101 47.2217 88.1199L42.8559 85.7128L42.748 83.5111C42.7287 83.1175 42.3939 82.8141 42.0003 82.8334Z" fill="#F0AF75"/>
<path fill-rule="evenodd" clip-rule="evenodd" d="M29.7571 82.301C29.365 82.3405 29.0792 82.6903 29.1187 83.0824L29.4363 86.2337L28.2507 90.3835C28.1424 90.7624 28.3618 91.1573 28.7407 91.2656C29.1196 91.3738 29.5146 91.1544 29.6228 90.7755L30.3978 88.0631L32.277 91.154C32.4817 91.4908 32.9206 91.5978 33.2574 91.3931C33.5941 91.1884 33.7011 90.7494 33.4964 90.4127L32.111 88.1339L33.5477 88.8916C33.8963 89.0755 34.3279 88.9419 34.5117 88.5934C34.6955 88.2448 34.562 87.8132 34.2134 87.6294L30.8315 85.8457L30.5386 82.9394C30.4991 82.5473 30.1492 82.2614 29.7571 82.301Z" fill="#F0AF75"/>
<path d="M15.9998 79.9165C19.7714 78.2188 20.9172 76.4006 20.7153 71.1499C24.1893 73.5704 25.2733 75.3762 23.6892 80.4247C20.966 81.2159 19.3348 81.3184 15.9998 79.9165Z" fill="#FFAAE0"/>
<path d="M29.3347 31.3196C37.8249 35.0628 40.8379 34.7045 48.7257 31.7151C54.5804 52.5458 55.1549 69.6493 46.8156 80.59C44.1437 84.0952 40.7941 84.3362 38.5191 82.1132C35.6546 79.3143 34.4506 79.9678 32.2776 82.3668C30.0269 84.8516 26.2075 83.4577 24.0781 81.0667C15.7152 71.6768 18.6695 31.4431 18.6695 31.4431C20.7135 34.2823 24.1935 34.9233 31.8853 34.4038L29.3347 31.3196Z" fill="#FFCEED"/>
<path d="M32.2637 82.3388C30.013 84.8236 26.1936 83.4297 24.0642 81.0387C24.0165 80.9852 23.9692 80.9307 23.9223 80.8752C17.0328 58.9705 53.2234 58.857 47.5794 79.4994C47.3326 79.8511 47.0736 80.2052 46.8017 80.5619C44.1298 84.0672 40.7802 84.3082 38.5052 82.0852C35.6407 79.2863 34.4367 79.9398 32.2637 82.3388Z" fill="#FFAAE0"/>
<rect width="4.89284" height="1.83481" rx="0.917407" transform="matrix(-1 0 0 1 47.3613 58.9144)" fill="#E598C9" fill-opacity="0.5"/>
<rect width="4.89284" height="1.83481" rx="0.917407" transform="matrix(-1 0 0 1 29.4836 58.9144)" fill="#E598C9" fill-opacity="0.5"/>
<path d="M39.9712 69.4645C31.9439 69.0313 26.0973 63.283 18.2592 51.2693C13.5703 69.0313 25.3946 80.5499 35.9958 78.1799C38.524 75.7663 39.6397 74.2414 39.9712 69.4645Z" fill="#F67FCA"/>
<path d="M31.0149 69.4645C39.0422 69.0313 44.8888 63.283 52.7269 51.2693C57.4158 69.0313 45.5915 80.7028 34.9903 78.3328C36.1484 77.6012 36.6614 77.1576 37.3858 76.3196C35.9587 76.993 34.4297 76.8656 33.0026 76.6617C34.3787 76.3196 35.5255 75.413 36.4429 74.3172C34.0984 74.8269 32.7478 74.623 31.2952 73.7203C33.0717 73.2764 34.4552 72.6608 35.7039 71.616C33.8181 71.1318 32.34 70.6221 31.0149 69.4645Z" fill="#F67FCA"/>
<path d="M39.951 58.453C37.8723 57.4326 37.0339 56.4384 35.8523 54.2613C34.7518 56.158 33.9055 57.0558 32.0707 58.4222C34.8589 61.3533 36.5804 61.3833 39.951 58.453Z" fill="#F0AF75"/>
<path d="M37.1675 48.8015C38.4831 44.0545 46.8461 43.8842 49.5113 49.3191" stroke="#F67FCA" stroke-linecap="round" stroke-linejoin="round"/>
<path d="M52.4392 49.1333C50.9589 49.4699 48.1838 48.7381 48.1838 48.7381C49.5015 49.467 56.0132 51.967 55.8044 49.5807C55.6733 48.0829 53.9195 48.7966 52.4392 49.1333Z" fill="#404040"/>
<path d="M51.8846 50.9725C50.1844 50.2514 48.1525 48.6641 48.1525 48.6641C48.2591 49.8827 55.5185 55.6684 55.794 52.6769C55.9388 51.1038 53.5847 51.6935 51.8846 50.9725Z" fill="#404040"/>
<path d="M35.0596 48.8014C33.7439 44.0545 25.3809 43.8842 22.7158 49.3191" stroke="#F67FCA" stroke-linecap="round" stroke-linejoin="round"/>
<path d="M20.1213 49.7657C21.6376 49.8401 24.2435 48.6376 24.2435 48.6376C23.0723 49.5842 17.0937 53.177 16.8849 50.7907C16.7539 49.2928 18.605 49.6912 20.1213 49.7657Z" fill="#404040"/>
<path d="M20.987 51.4806C22.5361 50.4753 24.2616 48.5593 24.2616 48.5593C24.3682 49.7778 18.2237 56.7362 17.433 53.838C17.0171 52.3139 19.4379 52.4858 20.987 51.4806Z" fill="#404040"/>
<path d="M42.6523 26.5067C41.6836 28.2021 37.6523 26.5067 37.6523 26.5067C37.6523 26.5067 34.4514 29.5366 32.1523 29.0067C30.3981 28.6025 28.6523 26.0067 28.6523 26.0067C28.6523 26.0067 24.2296 27.7395 22.6523 26.0067C20.8987 24.0802 21.7363 20.4812 24.1523 19.5067C25.8219 18.8334 28.6523 20.5067 28.6523 20.5067C28.6523 20.5067 30.3089 16.1981 32.6523 16.0067C34.7574 15.8348 37.1523 19.0067 37.1523 19.0067C37.1523 19.0067 39.2916 16.384 41.1526 17.0067C42.8598 17.578 44.191 18.7889 43.6526 20.5067C43.2078 21.9257 42.1523 23.0067 42.1523 23.0067C42.1523 23.0067 43.3373 25.3079 42.6523 26.5067Z" fill="white"/>
<circle cx="29.1523" cy="23.0067" r="1" fill="#F67FCA"/>
<circle cx="33.1523" cy="23.0067" r="1" fill="#F67FCA"/>
<circle cx="37.1523" cy="23.0067" r="1" fill="#F67FCA"/>
<defs>
<filter id="filter0_f_82_119" x="0" y="0" width="71.8096" height="108.007" filterUnits="userSpaceOnUse" color-interpolation-filters="sRGB">
<feFlood flood-opacity="0" result="BackgroundImageFix"/>
<feBlend mode="normal" in="SourceGraphic" in2="BackgroundImageFix" result="shape"/>
<feGaussianBlur stdDeviation="8" result="effect1_foregroundBlur_82_119"/>
</filter>
</defs>
</svg>
